<?xml version="1.0" encoding="UTF-8" standalone="no"?>
<!DOCTYPE svg PUBLIC "-//W3C//DTD SVG 1.1//EN"
 "http://www.w3.org/Graphics/SVG/1.1/DTD/svg11.dtd">
<!-- Generated by graphviz version 7.0.6 (20230106.0513)
 -->
<!-- Title: G Pages: 1 -->
<svg width="1079pt" height="363pt"
 viewBox="0.00 0.00 1078.60 362.95" xmlns="http://www.w3.org/2000/svg" xmlns:xlink="http://www.w3.org/1999/xlink">
<g id="graph0" class="graph" transform="scale(1 1) rotate(0) translate(4 358.95)">
<title>G</title><style>.edge>path:hover{stroke-width:8}</style>
<polygon fill="white" stroke="none" points="-4,4 -4,-358.95 1074.6,-358.95 1074.6,4 -4,4"/>
<!-- reference_pipeline_library_core -->
<g id="node1" class="node">
<title>reference_pipeline_library_core</title><style>.edge>path:hover{stroke-width:8}</style>
<ellipse fill="#f91010" stroke="black" cx="243.51" cy="-253.96" rx="90.52" ry="21.43"/>
<text text-anchor="middle" x="243.51" y="-256.96" font-family="Helvetica,sans-Serif" font-size="10.00" fill="#ffffff">reference_pipeline_library.</text>
<text text-anchor="middle" x="243.51" y="-245.96" font-family="Helvetica,sans-Serif" font-size="10.00" fill="#ffffff">core</text>
</g>
<!-- reference_pipeline_library_edc_collibra -->
<g id="node10" class="node">
<title>reference_pipeline_library_edc_collibra</title><style>.edge>path:hover{stroke-width:8}</style>
<ellipse fill="#8f3d3d" stroke="black" cx="90.51" cy="-122.97" rx="90.52" ry="28.98"/>
<text text-anchor="middle" x="90.51" y="-131.47" font-family="Helvetica,sans-Serif" font-size="10.00" fill="#ffffff">reference_pipeline_library.</text>
<text text-anchor="middle" x="90.51" y="-120.47" font-family="Helvetica,sans-Serif" font-size="10.00" fill="#ffffff">edc.</text>
<text text-anchor="middle" x="90.51" y="-109.47" font-family="Helvetica,sans-Serif" font-size="10.00" fill="#ffffff">collibra</text>
</g>
<!-- reference_pipeline_library_core&#45;&gt;reference_pipeline_library_edc_collibra -->
<g id="edge1" class="edge">
<title>reference_pipeline_library_core&#45;&gt;reference_pipeline_library_edc_collibra</title><style>.edge>path:hover{stroke-width:8}</style>
<path fill="none" stroke="black" d="M211.44,-233.5C192.32,-221.43 167.88,-205.19 147.51,-188.97"/>
</g>
<!-- reference_pipeline_library_core_base_config -->
<g id="node2" class="node">
<title>reference_pipeline_library_core_base_config</title><style>.edge>path:hover{stroke-width:8}</style>
<ellipse fill="#d31717" stroke="black" cx="680.51" cy="-122.97" rx="90.52" ry="28.98"/>
<text text-anchor="middle" x="680.51" y="-131.47" font-family="Helvetica,sans-Serif" font-size="10.00" fill="#ffffff">reference_pipeline_library.</text>
<text text-anchor="middle" x="680.51" y="-120.47" font-family="Helvetica,sans-Serif" font-size="10.00" fill="#ffffff">core.</text>
<text text-anchor="middle" x="680.51" y="-109.47" font-family="Helvetica,sans-Serif" font-size="10.00" fill="#ffffff">base_config</text>
</g>
<!-- reference_pipeline_library_core_eh_curated -->
<g id="node3" class="node">
<title>reference_pipeline_library_core_eh_curated</title><style>.edge>path:hover{stroke-width:8}</style>
<ellipse fill="#883a3a" stroke="black" cx="541.51" cy="-28.99" rx="90.52" ry="28.98"/>
<text text-anchor="middle" x="541.51" y="-37.49" font-family="Helvetica,sans-Serif" font-size="10.00" fill="#ffffff">reference_pipeline_library.</text>
<text text-anchor="middle" x="541.51" y="-26.49" font-family="Helvetica,sans-Serif" font-size="10.00" fill="#ffffff">core.</text>
<text text-anchor="middle" x="541.51" y="-15.49" font-family="Helvetica,sans-Serif" font-size="10.00" fill="#ffffff">eh_curated</text>
</g>
<!-- reference_pipeline_library_core_base_config&#45;&gt;reference_pipeline_library_core_eh_curated -->
<g id="edge2" class="edge">
<title>reference_pipeline_library_core_base_config&#45;&gt;reference_pipeline_library_core_eh_curated</title><style>.edge>path:hover{stroke-width:8}</style>
<path fill="none" stroke="black" d="M641.79,-96.35C625.52,-85.59 606.44,-72.96 589.31,-61.62"/>
<polygon fill="#d31717" stroke="black" points="591.55,-58.91 581.28,-56.31 587.69,-64.75 591.55,-58.91"/>
</g>
<!-- reference_pipeline_library_core_euh_eh -->
<g id="node4" class="node">
<title>reference_pipeline_library_core_euh_eh</title><style>.edge>path:hover{stroke-width:8}</style>
<ellipse fill="#883a3a" stroke="black" cx="740.51" cy="-28.99" rx="90.52" ry="28.98"/>
<text text-anchor="middle" x="740.51" y="-37.49" font-family="Helvetica,sans-Serif" font-size="10.00" fill="#ffffff">reference_pipeline_library.</text>
<text text-anchor="middle" x="740.51" y="-26.49" font-family="Helvetica,sans-Serif" font-size="10.00" fill="#ffffff">core.</text>
<text text-anchor="middle" x="740.51" y="-15.49" font-family="Helvetica,sans-Serif" font-size="10.00" fill="#ffffff">euh_eh</text>
</g>
<!-- reference_pipeline_library_core_base_config&#45;&gt;reference_pipeline_library_core_euh_eh -->
<g id="edge3" class="edge">
<title>reference_pipeline_library_core_base_config&#45;&gt;reference_pipeline_library_core_euh_eh</title><style>.edge>path:hover{stroke-width:8}</style>
<path fill="none" stroke="black" d="M698.51,-94.38C704.09,-85.83 710.33,-76.26 716.26,-67.17"/>
<polygon fill="#d31717" stroke="black" points="719.16,-69.13 721.69,-58.84 713.3,-65.3 719.16,-69.13"/>
</g>
<!-- reference_pipeline_library_core_landing_raw -->
<g id="node5" class="node">
<title>reference_pipeline_library_core_landing_raw</title><style>.edge>path:hover{stroke-width:8}</style>
<ellipse fill="#883a3a" stroke="black" cx="939.51" cy="-28.99" rx="90.52" ry="28.98"/>
<text text-anchor="middle" x="939.51" y="-37.49" font-family="Helvetica,sans-Serif" font-size="10.00" fill="#ffffff">reference_pipeline_library.</text>
<text text-anchor="middle" x="939.51" y="-26.49" font-family="Helvetica,sans-Serif" font-size="10.00" fill="#ffffff">core.</text>
<text text-anchor="middle" x="939.51" y="-15.49" font-family="Helvetica,sans-Serif" font-size="10.00" fill="#ffffff">landing_raw</text>
</g>
<!-- reference_pipeline_library_core_base_config&#45;&gt;reference_pipeline_library_core_landing_raw -->
<g id="edge4" class="edge">
<title>reference_pipeline_library_core_base_config&#45;&gt;reference_pipeline_library_core_landing_raw</title><style>.edge>path:hover{stroke-width:8}</style>
<path fill="none" stroke="black" d="M740.25,-100.76C778.71,-87.1 828.86,-69.29 869.23,-54.95"/>
<polygon fill="#d31717" stroke="black" points="870.39,-58.25 878.64,-51.61 868.04,-51.66 870.39,-58.25"/>
</g>
<!-- reference_pipeline_library_core_raw_euh -->
<g id="node7" class="node">
<title>reference_pipeline_library_core_raw_euh</title><style>.edge>path:hover{stroke-width:8}</style>
<ellipse fill="#883a3a" stroke="black" cx="342.51" cy="-28.99" rx="90.52" ry="28.98"/>
<text text-anchor="middle" x="342.51" y="-37.49" font-family="Helvetica,sans-Serif" font-size="10.00" fill="#ffffff">reference_pipeline_library.</text>
<text text-anchor="middle" x="342.51" y="-26.49" font-family="Helvetica,sans-Serif" font-size="10.00" fill="#ffffff">core.</text>
<text text-anchor="middle" x="342.51" y="-15.49" font-family="Helvetica,sans-Serif" font-size="10.00" fill="#ffffff">raw_euh</text>
</g>
<!-- reference_pipeline_library_core_base_config&#45;&gt;reference_pipeline_library_core_raw_euh -->
<g id="edge5" class="edge">
<title>reference_pipeline_library_core_base_config&#45;&gt;reference_pipeline_library_core_raw_euh</title><style>.edge>path:hover{stroke-width:8}</style>
<path fill="none" stroke="black" d="M611.67,-103.82C563.88,-91.14 498.77,-73.74 441.51,-57.98 434.59,-56.08 427.41,-54.08 420.21,-52.07"/>
<polygon fill="#d31717" stroke="black" points="421.34,-48.75 410.76,-49.42 419.45,-55.49 421.34,-48.75"/>
</g>
<!-- reference_pipeline_library_core_lif -->
<g id="node6" class="node">
<title>reference_pipeline_library_core_lif</title><style>.edge>path:hover{stroke-width:8}</style>
<ellipse fill="#d31717" stroke="black" cx="442.51" cy="-122.97" rx="90.52" ry="28.98"/>
<text text-anchor="middle" x="442.51" y="-131.47" font-family="Helvetica,sans-Serif" font-size="10.00" fill="#ffffff">reference_pipeline_library.</text>
<text text-anchor="middle" x="442.51" y="-120.47" font-family="Helvetica,sans-Serif" font-size="10.00" fill="#ffffff">core.</text>
<text text-anchor="middle" x="442.51" y="-109.47" font-family="Helvetica,sans-Serif" font-size="10.00" fill="#ffffff">lif</text>
</g>
<!-- reference_pipeline_library_core_lif&#45;&gt;reference_pipeline_library_core_eh_curated -->
<g id="edge6" class="edge">
<title>reference_pipeline_library_core_lif&#45;&gt;reference_pipeline_library_core_eh_curated</title><style>.edge>path:hover{stroke-width:8}</style>
<path fill="none" stroke="black" d="M471.41,-95.12C481.78,-85.49 493.62,-74.49 504.57,-64.31"/>
<polygon fill="#d31717" stroke="black" points="506.69,-67.12 511.64,-57.75 501.93,-61.99 506.69,-67.12"/>
</g>
<!-- reference_pipeline_library_core_lif&#45;&gt;reference_pipeline_library_core_euh_eh -->
<g id="edge7" class="edge">
<title>reference_pipeline_library_core_lif&#45;&gt;reference_pipeline_library_core_euh_eh</title><style>.edge>path:hover{stroke-width:8}</style>
<path fill="none" stroke="black" d="M506.8,-102.13C553.41,-87.74 616.58,-68.25 665.49,-53.15"/>
<polygon fill="#d31717" stroke="black" points="666.36,-56.54 674.88,-50.25 664.3,-49.85 666.36,-56.54"/>
</g>
<!-- reference_pipeline_library_core_lif&#45;&gt;reference_pipeline_library_core_landing_raw -->
<g id="edge8" class="edge">
<title>reference_pipeline_library_core_lif&#45;&gt;reference_pipeline_library_core_landing_raw</title><style>.edge>path:hover{stroke-width:8}</style>
<path fill="none" stroke="black" d="M516.83,-106.01C537.41,-101.83 559.78,-97.52 580.51,-93.98 695.51,-74.38 726.33,-81.91 840.51,-57.98 848.11,-56.39 855.99,-54.53 863.83,-52.54"/>
<polygon fill="#d31717" stroke="black" points="864.61,-55.95 873.39,-50.04 862.83,-49.18 864.61,-55.95"/>
</g>
<!-- reference_pipeline_library_core_lif&#45;&gt;reference_pipeline_library_core_raw_euh -->
<g id="edge9" class="edge">
<title>reference_pipeline_library_core_lif&#45;&gt;reference_pipeline_library_core_raw_euh</title><style>.edge>path:hover{stroke-width:8}</style>
<path fill="none" stroke="black" d="M413.32,-95.12C402.84,-85.49 390.89,-74.49 379.82,-64.31"/>
<polygon fill="#d31717" stroke="black" points="382.41,-61.94 372.68,-57.74 377.67,-67.09 382.41,-61.94"/>
</g>
<!-- reference_pipeline_library_core_register_table_uc -->
<g id="node8" class="node">
<title>reference_pipeline_library_core_register_table_uc</title><style>.edge>path:hover{stroke-width:8}</style>
<ellipse fill="#ca1616" stroke="black" cx="879.51" cy="-122.97" rx="90.52" ry="28.98"/>
<text text-anchor="middle" x="879.51" y="-131.47" font-family="Helvetica,sans-Serif" font-size="10.00" fill="#ffffff">reference_pipeline_library.</text>
<text text-anchor="middle" x="879.51" y="-120.47" font-family="Helvetica,sans-Serif" font-size="10.00" fill="#ffffff">core.</text>
<text text-anchor="middle" x="879.51" y="-109.47" font-family="Helvetica,sans-Serif" font-size="10.00" fill="#ffffff">register_table_uc</text>
</g>
<!-- reference_pipeline_library_core_register_table_uc&#45;&gt;reference_pipeline_library_core_eh_curated -->
<g id="edge10" class="edge">
<title>reference_pipeline_library_core_register_table_uc&#45;&gt;reference_pipeline_library_core_eh_curated</title><style>.edge>path:hover{stroke-width:8}</style>
<path fill="none" stroke="black" d="M813,-102.94C802.16,-99.9 791.03,-96.82 780.51,-93.98 718.48,-77.24 702.54,-74.72 640.51,-57.98 633.52,-56.1 626.27,-54.11 619.01,-52.09"/>
<polygon fill="#ca1616" stroke="black" points="620.05,-48.75 609.47,-49.44 618.17,-55.49 620.05,-48.75"/>
</g>
<!-- reference_pipeline_library_core_register_table_uc&#45;&gt;reference_pipeline_library_core_euh_eh -->
<g id="edge11" class="edge">
<title>reference_pipeline_library_core_register_table_uc&#45;&gt;reference_pipeline_library_core_euh_eh</title><style>.edge>path:hover{stroke-width:8}</style>
<path fill="none" stroke="black" d="M840.79,-96.35C824.52,-85.59 805.44,-72.96 788.31,-61.62"/>
<polygon fill="#ca1616" stroke="black" points="790.55,-58.91 780.28,-56.31 786.69,-64.75 790.55,-58.91"/>
</g>
<!-- reference_pipeline_library_core_register_table_uc&#45;&gt;reference_pipeline_library_core_landing_raw -->
<g id="edge12" class="edge">
<title>reference_pipeline_library_core_register_table_uc&#45;&gt;reference_pipeline_library_core_landing_raw</title><style>.edge>path:hover{stroke-width:8}</style>
<path fill="none" stroke="black" d="M897.51,-94.38C903.09,-85.83 909.33,-76.26 915.26,-67.17"/>
<polygon fill="#ca1616" stroke="black" points="918.16,-69.13 920.69,-58.84 912.3,-65.3 918.16,-69.13"/>
</g>
<!-- reference_pipeline_library_core_register_table_uc&#45;&gt;reference_pipeline_library_core_raw_euh -->
<g id="edge13" class="edge">
<title>reference_pipeline_library_core_register_table_uc&#45;&gt;reference_pipeline_library_core_raw_euh</title><style>.edge>path:hover{stroke-width:8}</style>
<path fill="none" stroke="black" d="M815.45,-102.15C803.9,-99.07 791.91,-96.18 780.51,-93.98 631.74,-65.27 590.28,-86.7 441.51,-57.98 433.67,-56.47 425.55,-54.63 417.49,-52.63"/>
<polygon fill="#ca1616" stroke="black" points="418.59,-49.3 408.03,-50.19 416.84,-56.08 418.59,-49.3"/>
</g>
<!-- reference_pipeline_library_core_spark_init -->
<g id="node9" class="node">
<title>reference_pipeline_library_core_spark_init</title><style>.edge>path:hover{stroke-width:8}</style>
<ellipse fill="#ce3b3b" stroke="black" cx="442.51" cy="-253.96" rx="90.52" ry="28.98"/>
<text text-anchor="middle" x="442.51" y="-262.46" font-family="Helvetica,sans-Serif" font-size="10.00" fill="#ffffff">reference_pipeline_library.</text>
<text text-anchor="middle" x="442.51" y="-251.46" font-family="Helvetica,sans-Serif" font-size="10.00" fill="#ffffff">core.</text>
<text text-anchor="middle" x="442.51" y="-240.46" font-family="Helvetica,sans-Serif" font-size="10.00" fill="#ffffff">spark_init</text>
</g>
<!-- reference_pipeline_library_core_spark_init&#45;&gt;reference_pipeline_library_core_lif -->
<g id="edge14" class="edge">
<title>reference_pipeline_library_core_spark_init&#45;&gt;reference_pipeline_library_core_lif</title><style>.edge>path:hover{stroke-width:8}</style>
<path fill="none" stroke="black" d="M442.51,-224.65C442.51,-206.76 442.51,-183.37 442.51,-163.64"/>
<polygon fill="#ce3b3b" stroke="black" points="446.01,-163.73 442.51,-153.73 439.01,-163.73 446.01,-163.73"/>
</g>
<!-- reference_pipeline_library_core_spark_init&#45;&gt;reference_pipeline_library_edc_collibra -->
<g id="edge15" class="edge">
<title>reference_pipeline_library_core_spark_init&#45;&gt;reference_pipeline_library_edc_collibra</title><style>.edge>path:hover{stroke-width:8}</style>
<path fill="none" stroke="black" d="M377.23,-233.56C366.03,-230.51 354.47,-227.52 343.51,-224.97 257.25,-204.89 216.79,-244.14 147.51,-188.97"/>
</g>
<!-- reference_pipeline_library_helpers -->
<g id="node11" class="node">
<title>reference_pipeline_library_helpers</title><style>.edge>path:hover{stroke-width:8}</style>
<ellipse fill="#f91010" stroke="black" cx="957.51" cy="-253.96" rx="90.52" ry="21.43"/>
<text text-anchor="middle" x="957.51" y="-256.96" font-family="Helvetica,sans-Serif" font-size="10.00" fill="#ffffff">reference_pipeline_library.</text>
<text text-anchor="middle" x="957.51" y="-245.96" font-family="Helvetica,sans-Serif" font-size="10.00" fill="#ffffff">helpers</text>
</g>
<!-- reference_pipeline_library_helpers&#45;&gt;reference_pipeline_library_core_base_config -->
<g id="edge16" class="edge">
<title>reference_pipeline_library_helpers&#45;&gt;reference_pipeline_library_core_base_config</title><style>.edge>path:hover{stroke-width:8}</style>
<path fill="none" stroke="black" d="M934.07,-232.76C918.82,-219.86 898.33,-202.99 879.51,-188.97"/>
<path fill="none" stroke="black" d="M879.51,-187.97C869.19,-180.27 809.16,-161.45 757.71,-146.19"/>
<polygon fill="#f91010" stroke="black" points="758.91,-142.9 748.33,-143.43 756.93,-149.61 758.91,-142.9"/>
</g>
<!-- reference_pipeline_library_helpers&#45;&gt;reference_pipeline_library_core_eh_curated -->
<g id="edge17" class="edge">
<title>reference_pipeline_library_helpers&#45;&gt;reference_pipeline_library_core_eh_curated</title><style>.edge>path:hover{stroke-width:8}</style>
<path fill="none" stroke="black" d="M891.83,-238.95C789.97,-216.7 603.19,-173.59 580.51,-151.97 558.08,-130.58 548.52,-96.33 544.45,-69.56"/>
<polygon fill="#f91010" stroke="black" points="547.94,-69.2 543.18,-59.73 540.99,-70.1 547.94,-69.2"/>
</g>
<!-- reference_pipeline_library_helpers&#45;&gt;reference_pipeline_library_core_euh_eh -->
<g id="edge18" class="edge">
<title>reference_pipeline_library_helpers&#45;&gt;reference_pipeline_library_core_euh_eh</title><style>.edge>path:hover{stroke-width:8}</style>
<path fill="none" stroke="black" d="M951.02,-232.25C948.04,-218.3 947.15,-200.42 957.51,-188.97"/>
</g>
<!-- reference_pipeline_library_helpers&#45;&gt;reference_pipeline_library_core_landing_raw -->
<g id="edge19" class="edge">
<title>reference_pipeline_library_helpers&#45;&gt;reference_pipeline_library_core_landing_raw</title><style>.edge>path:hover{stroke-width:8}</style>
<path fill="none" stroke="black" d="M965.49,-232.36C971.79,-218.46 981.82,-200.59 995.51,-188.97"/>
</g>
<!-- reference_pipeline_library_helpers&#45;&gt;reference_pipeline_library_core_raw_euh -->
<g id="edge20" class="edge">
<title>reference_pipeline_library_helpers&#45;&gt;reference_pipeline_library_core_raw_euh</title><style>.edge>path:hover{stroke-width:8}</style>
<path fill="none" stroke="black" d="M891.79,-238.83C869.24,-234.17 843.81,-229.12 820.51,-224.97 714.73,-206.09 412.52,-233.48 342.51,-151.97 323.4,-129.72 324.97,-95.84 330.43,-69.43"/>
<polygon fill="#f91010" stroke="black" points="333.83,-70.26 332.71,-59.73 327.02,-68.66 333.83,-70.26"/>
</g>
<!-- reference_pipeline_library_helpers&#45;&gt;reference_pipeline_library_core_register_table_uc -->
<g id="edge21" class="edge">
<title>reference_pipeline_library_helpers&#45;&gt;reference_pipeline_library_core_register_table_uc</title><style>.edge>path:hover{stroke-width:8}</style>
<path fill="none" stroke="black" d="M879.51,-187.97C871.83,-182.24 869.32,-173.11 869.37,-163.52"/>
<polygon fill="#f91010" stroke="black" points="872.84,-164.02 870.31,-153.73 865.87,-163.35 872.84,-164.02"/>
</g>
<!-- reference_pipeline_library_helpers&#45;&gt;reference_pipeline_library_edc_collibra -->
<g id="edge22" class="edge">
<title>reference_pipeline_library_helpers&#45;&gt;reference_pipeline_library_edc_collibra</title><style>.edge>path:hover{stroke-width:8}</style>
<path fill="none" stroke="black" d="M894.37,-238.25C871.25,-233.35 844.8,-228.29 820.51,-224.97 594.94,-194.11 533.53,-229.59 309.51,-188.97 258.71,-179.75 202.95,-163.11 160.41,-148.97"/>
<polygon fill="#f91010" stroke="black" points="161.64,-145.69 151.05,-145.82 159.41,-152.32 161.64,-145.69"/>
</g>
<!-- reference_pipeline_library_helpers_config -->
<g id="node12" class="node">
<title>reference_pipeline_library_helpers_config</title><style>.edge>path:hover{stroke-width:8}</style>
<ellipse fill="#f91010" stroke="black" cx="720.51" cy="-253.96" rx="90.52" ry="28.98"/>
<text text-anchor="middle" x="720.51" y="-262.46" font-family="Helvetica,sans-Serif" font-size="10.00" fill="#ffffff">reference_pipeline_library.</text>
<text text-anchor="middle" x="720.51" y="-251.46" font-family="Helvetica,sans-Serif" font-size="10.00" fill="#ffffff">helpers.</text>
<text text-anchor="middle" x="720.51" y="-240.46" font-family="Helvetica,sans-Serif" font-size="10.00" fill="#ffffff">config</text>
</g>
<!-- reference_pipeline_library_helpers_config&#45;&gt;reference_pipeline_library_core_base_config -->
<g id="edge23" class="edge">
<title>reference_pipeline_library_helpers_config&#45;&gt;reference_pipeline_library_core_base_config</title><style>.edge>path:hover{stroke-width:8}</style>
<path fill="none" stroke="black" d="M711.73,-224.65C706.13,-206.59 698.79,-182.93 692.64,-163.09"/>
<polygon fill="#f91010" stroke="black" points="696.02,-162.17 689.72,-153.66 689.33,-164.25 696.02,-162.17"/>
</g>
<!-- reference_pipeline_library_helpers_config&#45;&gt;reference_pipeline_library_core_eh_curated -->
<g id="edge24" class="edge">
<title>reference_pipeline_library_helpers_config&#45;&gt;reference_pipeline_library_core_eh_curated</title><style>.edge>path:hover{stroke-width:8}</style>
<path fill="none" stroke="black" d="M644.83,-237.86C539.94,-216.18 361.1,-176.18 342.51,-151.97 326.81,-131.53 327.33,-114.81 342.51,-93.98 346.4,-88.64 410.4,-68.63 464.78,-52.39"/>
<polygon fill="#f91010" stroke="black" points="465.47,-55.84 474.05,-49.63 463.47,-49.13 465.47,-55.84"/>
</g>
<!-- reference_pipeline_library_helpers_config&#45;&gt;reference_pipeline_library_core_euh_eh -->
<g id="edge25" class="edge">
<title>reference_pipeline_library_helpers_config&#45;&gt;reference_pipeline_library_core_euh_eh</title><style>.edge>path:hover{stroke-width:8}</style>
<path fill="none" stroke="black" d="M957.51,-187.97C988.66,-158.47 1005.8,-127.88 979.51,-93.98 940.14,-43.21 901.54,-74.72 839.51,-57.98 832.52,-56.1 825.27,-54.11 818.01,-52.09"/>
<polygon fill="#f91010" stroke="black" points="819.05,-48.75 808.47,-49.44 817.17,-55.49 819.05,-48.75"/>
<path fill="none" stroke="black" d="M795.02,-237.08C860.25,-222.5 946.33,-201.34 957.51,-188.97"/>
</g>
<!-- reference_pipeline_library_helpers_config&#45;&gt;reference_pipeline_library_core_landing_raw -->
<g id="edge26" class="edge">
<title>reference_pipeline_library_helpers_config&#45;&gt;reference_pipeline_library_core_landing_raw</title><style>.edge>path:hover{stroke-width:8}</style>
<path fill="none" stroke="black" d="M795.35,-237.31C874.09,-220.58 987.74,-195.56 995.51,-188.97"/>
<path fill="none" stroke="black" d="M995.51,-187.97C1006.15,-178.93 1003.45,-103.95 999.51,-93.98 995.27,-83.26 988.28,-73.27 980.55,-64.53"/>
<polygon fill="#f91010" stroke="black" points="983.11,-62.15 973.68,-57.33 978.05,-66.98 983.11,-62.15"/>
</g>
<!-- reference_pipeline_library_helpers_config&#45;&gt;reference_pipeline_library_core_raw_euh -->
<g id="edge27" class="edge">
<title>reference_pipeline_library_helpers_config&#45;&gt;reference_pipeline_library_core_raw_euh</title><style>.edge>path:hover{stroke-width:8}</style>
<path fill="none" stroke="black" d="M209.51,-187.97C155,-159.56 233.16,-98.34 290.74,-61.01"/>
<polygon fill="#f91010" stroke="black" points="292.32,-64.15 298.86,-55.82 288.55,-58.25 292.32,-64.15"/>
</g>
<!-- reference_pipeline_library_helpers_config&#45;&gt;reference_pipeline_library_core_register_table_uc -->
<g id="edge28" class="edge">
<title>reference_pipeline_library_helpers_config&#45;&gt;reference_pipeline_library_core_register_table_uc</title><style>.edge>path:hover{stroke-width:8}</style>
<path fill="none" stroke="black" d="M753.07,-226.54C777.72,-206.55 811.75,-178.94 838.3,-157.4"/>
<polygon fill="#f91010" stroke="black" points="840.26,-160.32 845.82,-151.31 835.85,-154.89 840.26,-160.32"/>
</g>
<!-- reference_pipeline_library_helpers_config&#45;&gt;reference_pipeline_library_edc_collibra -->
<g id="edge29" class="edge">
<title>reference_pipeline_library_helpers_config&#45;&gt;reference_pipeline_library_edc_collibra</title><style>.edge>path:hover{stroke-width:8}</style>
<path fill="none" stroke="black" d="M209.51,-187.97C188.51,-177.02 165.57,-164.76 145.48,-153.92"/>
<polygon fill="#f91010" stroke="black" points="147.36,-150.96 136.9,-149.28 144.03,-157.12 147.36,-150.96"/>
<path fill="none" stroke="black" d="M641.32,-239.67C610.53,-234.72 574.92,-229.26 542.51,-224.97 468.72,-215.18 275.52,-223.36 209.51,-188.97"/>
</g>
<!-- requests -->
<g id="node13" class="node">
<title>lif_ref_pipeline</title><style>.edge>path:hover{stroke-width:8}</style>
<ellipse fill="#33cccc" stroke="black" cx="580.51" cy="-336.95" rx="31.58" ry="18"/>
<text text-anchor="middle" x="580.51" y="-334.45" font-family="Helvetica,sans-Serif" font-size="10.00" fill="#000000">requests</text>
</g>
<!-- requests&#45;&gt;reference_pipeline_library_core_register_table_uc -->
<g id="edge30" class="edge">
<title>lif_ref_pipeline&#45;&gt;reference_pipeline_library_core_register_table_uc</title><style>.edge>path:hover{stroke-width:8}</style>
<path fill="none" stroke="black" d="M612.06,-334.83C713.7,-330.92 1027.75,-316.2 1057.51,-282.95 1103.31,-231.78 1015.19,-180.23 947.37,-150.24"/>
<polygon fill="#33cccc" stroke="black" points="949.06,-147.16 938.49,-146.4 946.28,-153.58 949.06,-147.16"/>
</g>
<!-- requests&#45;&gt;reference_pipeline_library_edc_collibra -->
<g id="edge31" class="edge">
<title>lif_ref_pipeline&#45;&gt;reference_pipeline_library_edc_collibra</title><style>.edge>path:hover{stroke-width:8}</style>
<path fill="none" stroke="black" d="M548.94,-334.49C453.1,-329.76 170.4,-313.3 143.51,-282.95 126.42,-263.66 142.08,-250.7 143.51,-224.97 144.4,-208.89 160.1,-198.99 147.51,-188.97"/>
<path fill="none" stroke="black" d="M147.51,-187.97C137.28,-179.97 127.4,-169.98 118.82,-160.3"/>
<polygon fill="#33cccc" stroke="black" points="121.48,-158.02 112.32,-152.7 116.16,-162.58 121.48,-158.02"/>
</g>
</g>
</svg>
